<?xml version="1.0" encoding="UTF-8" standalone="no"?>
<!DOCTYPE svg PUBLIC "-//W3C//DTD SVG 1.1//EN"
 "http://www.w3.org/Graphics/SVG/1.1/DTD/svg11.dtd">
<!-- Generated by graphviz version 2.50.0 (20211204.2007)
 -->
<!-- Pages: 1 -->
<svg width="1008pt" height="575pt"
 viewBox="0.00 0.00 1008.00 574.93" xmlns="http://www.w3.org/2000/svg" xmlns:xlink="http://www.w3.org/1999/xlink">
<g id="graph0" class="graph" transform="scale(0.39 0.39) rotate(0) translate(4 1485.76)">
<polygon fill="white" stroke="transparent" points="-4,4 -4,-1485.76 2607.96,-1485.76 2607.96,4 -4,4"/>
<!-- $(go list &#45;m) -->
<g id="node1" class="node">
<title>$(go list &#45;m)</title>
<polygon fill="#e94762" stroke="transparent" points="1957,-187 1812,-187 1812,-151 1957,-151 1957,-187"/>
<text text-anchor="middle" x="1884.5" y="-162.8" font-family="Helvetica,sans-Serif" font-size="24.00">$(go list &#45;m)</text>
</g>
<!-- github.com/gin&#45;contrib/\nsse -->
<g id="node2" class="node">
<title>github.com/gin&#45;contrib/\nsse</title>
<text text-anchor="middle" x="711.24" y="-1002.78" font-family="Helvetica,sans-Serif" font-size="24.00">github.com/gin&#45;contrib/</text>
<text text-anchor="middle" x="711.24" y="-976.78" font-family="Helvetica,sans-Serif" font-size="24.00">sse</text>
</g>
<!-- github.com/stretchr/\ntestify -->
<g id="node3" class="node">
<title>github.com/stretchr/\ntestify</title>
<text text-anchor="middle" x="883.35" y="-908.14" font-family="Helvetica,sans-Serif" font-size="24.00">github.com/stretchr/</text>
<text text-anchor="middle" x="883.35" y="-882.14" font-family="Helvetica,sans-Serif" font-size="24.00">testify</text>
</g>
<!-- github.com/gin&#45;contrib/\nsse&#45;&gt;github.com/stretchr/\ntestify -->
<g id="edge1" class="edge">
<title>github.com/gin&#45;contrib/\nsse&#45;&gt;github.com/stretchr/\ntestify</title>
<path fill="none" stroke="black" d="M766.17,-965.77C783.18,-956.42 802.06,-946.04 819.61,-936.39"/>
<polygon fill="black" stroke="black" points="821.57,-939.3 828.65,-931.42 818.2,-933.17 821.57,-939.3"/>
</g>
<!-- gopkg.in/yaml.v2 -->
<g id="node10" class="node">
<title>gopkg.in/yaml.v2</title>
<text text-anchor="middle" x="1043.06" y="-1123.78" font-family="Helvetica,sans-Serif" font-size="24.00">gopkg.in/yaml.v2</text>
</g>
<!-- github.com/stretchr/\ntestify&#45;&gt;gopkg.in/yaml.v2 -->
<g id="edge28" class="edge">
<title>github.com/stretchr/\ntestify&#45;&gt;gopkg.in/yaml.v2</title>
<path fill="none" stroke="black" d="M904.56,-931.7C936.07,-976.82 994.75,-1060.82 1024.59,-1103.55"/>
<polygon fill="black" stroke="black" points="1021.74,-1105.57 1030.33,-1111.76 1027.48,-1101.56 1021.74,-1105.57"/>
</g>
<!-- github.com/davecgh/\ngo&#45;spew -->
<g id="node17" class="node">
<title>github.com/davecgh/\ngo&#45;spew</title>
<text text-anchor="middle" x="927.54" y="-549.58" font-family="Helvetica,sans-Serif" font-size="24.00">github.com/davecgh/</text>
<text text-anchor="middle" x="927.54" y="-523.58" font-family="Helvetica,sans-Serif" font-size="24.00">go&#45;spew</text>
</g>
<!-- github.com/stretchr/\ntestify&#45;&gt;github.com/davecgh/\ngo&#45;spew -->
<g id="edge25" class="edge">
<title>github.com/stretchr/\ntestify&#45;&gt;github.com/davecgh/\ngo&#45;spew</title>
<path fill="none" stroke="black" d="M887.08,-871.08C895.03,-806.55 913.66,-655.41 922.59,-582.93"/>
<polygon fill="black" stroke="black" points="926.09,-583.18 923.84,-572.83 919.14,-582.33 926.09,-583.18"/>
</g>
<!-- github.com/pmezard/\ngo&#45;difflib -->
<g id="node23" class="node">
<title>github.com/pmezard/\ngo&#45;difflib</title>
<text text-anchor="middle" x="855.01" y="-1310.44" font-family="Helvetica,sans-Serif" font-size="24.00">github.com/pmezard/</text>
<text text-anchor="middle" x="855.01" y="-1284.44" font-family="Helvetica,sans-Serif" font-size="24.00">go&#45;difflib</text>
</g>
<!-- github.com/stretchr/\ntestify&#45;&gt;github.com/pmezard/\ngo&#45;difflib -->
<g id="edge26" class="edge">
<title>github.com/stretchr/\ntestify&#45;&gt;github.com/pmezard/\ngo&#45;difflib</title>
<path fill="none" stroke="black" d="M881.22,-931.58C876.18,-1003.1 863.53,-1182.72 857.85,-1263.35"/>
<polygon fill="black" stroke="black" points="854.34,-1263.37 857.13,-1273.6 861.32,-1263.87 854.34,-1263.37"/>
</g>
<!-- github.com/stretchr/\nobjx -->
<g id="node24" class="node">
<title>github.com/stretchr/\nobjx</title>
<text text-anchor="middle" x="616.45" y="-1238.44" font-family="Helvetica,sans-Serif" font-size="24.00">github.com/stretchr/</text>
<text text-anchor="middle" x="616.45" y="-1212.44" font-family="Helvetica,sans-Serif" font-size="24.00">objx</text>
</g>
<!-- github.com/stretchr/\ntestify&#45;&gt;github.com/stretchr/\nobjx -->
<g id="edge27" class="edge">
<title>github.com/stretchr/\ntestify&#45;&gt;github.com/stretchr/\nobjx</title>
<path fill="none" stroke="black" d="M858.96,-931.53C810.34,-991.7 701.41,-1126.5 647.66,-1193.01"/>
<polygon fill="black" stroke="black" points="644.64,-1191.18 641.08,-1201.16 650.08,-1195.58 644.64,-1191.18"/>
</g>
<!-- github.com/gin&#45;gonic/\ngin -->
<g id="node4" class="node">
<title>github.com/gin&#45;gonic/\ngin</title>
<text text-anchor="middle" x="891.77" y="-757.13" font-family="Helvetica,sans-Serif" font-size="24.00">github.com/gin&#45;gonic/</text>
<text text-anchor="middle" x="891.77" y="-731.13" font-family="Helvetica,sans-Serif" font-size="24.00">gin</text>
</g>
<!-- github.com/gin&#45;gonic/\ngin&#45;&gt;github.com/gin&#45;contrib/\nsse -->
<g id="edge2" class="edge">
<title>github.com/gin&#45;gonic/\ngin&#45;&gt;github.com/gin&#45;contrib/\nsse</title>
<path fill="none" stroke="black" d="M869.64,-780.45C836.88,-825.02 775.51,-908.52 739.53,-957.47"/>
<polygon fill="black" stroke="black" points="736.66,-955.48 733.56,-965.61 742.3,-959.62 736.66,-955.48"/>
</g>
<!-- github.com/gin&#45;gonic/\ngin&#45;&gt;github.com/stretchr/\ntestify -->
<g id="edge7" class="edge">
<title>github.com/gin&#45;gonic/\ngin&#45;&gt;github.com/stretchr/\ntestify</title>
<path fill="none" stroke="black" d="M890.09,-780.53C888.8,-803.67 887.01,-835.84 885.59,-861.16"/>
<polygon fill="black" stroke="black" points="882.1,-861.02 885.03,-871.2 889.09,-861.41 882.1,-861.02"/>
</g>
<!-- github.com/go&#45;playground/\nvalidator/v10 -->
<g id="node5" class="node">
<title>github.com/go&#45;playground/\nvalidator/v10</title>
<text text-anchor="middle" x="1470.95" y="-575.73" font-family="Helvetica,sans-Serif" font-size="24.00">github.com/go&#45;playground/</text>
<text text-anchor="middle" x="1470.95" y="-549.73" font-family="Helvetica,sans-Serif" font-size="24.00">validator/v10</text>
</g>
<!-- github.com/gin&#45;gonic/\ngin&#45;&gt;github.com/go&#45;playground/\nvalidator/v10 -->
<g id="edge3" class="edge">
<title>github.com/gin&#45;gonic/\ngin&#45;&gt;github.com/go&#45;playground/\nvalidator/v10</title>
<path fill="none" stroke="black" d="M987.74,-720.27C1091.81,-687.68 1257.46,-635.8 1365.21,-602.05"/>
<polygon fill="black" stroke="black" points="1366.31,-605.38 1374.8,-599.05 1364.21,-598.7 1366.31,-605.38"/>
</g>
<!-- github.com/golang/\nprotobuf -->
<g id="node6" class="node">
<title>github.com/golang/\nprotobuf</title>
<text text-anchor="middle" x="484.73" y="-915.06" font-family="Helvetica,sans-Serif" font-size="24.00">github.com/golang/</text>
<text text-anchor="middle" x="484.73" y="-889.06" font-family="Helvetica,sans-Serif" font-size="24.00">protobuf</text>
</g>
<!-- github.com/gin&#45;gonic/\ngin&#45;&gt;github.com/golang/\nprotobuf -->
<g id="edge4" class="edge">
<title>github.com/gin&#45;gonic/\ngin&#45;&gt;github.com/golang/\nprotobuf</title>
<path fill="none" stroke="black" d="M814.25,-780.41C745.05,-807.26 643.8,-846.55 571.82,-874.47"/>
<polygon fill="black" stroke="black" points="570.37,-871.28 562.31,-878.16 572.9,-877.81 570.37,-871.28"/>
</g>
<!-- github.com/json&#45;iterator/\ngo -->
<g id="node7" class="node">
<title>github.com/json&#45;iterator/\ngo</title>
<text text-anchor="middle" x="766.45" y="-402.27" font-family="Helvetica,sans-Serif" font-size="24.00">github.com/json&#45;iterator/</text>
<text text-anchor="middle" x="766.45" y="-376.27" font-family="Helvetica,sans-Serif" font-size="24.00">go</text>
</g>
<!-- github.com/gin&#45;gonic/\ngin&#45;&gt;github.com/json&#45;iterator/\ngo -->
<g id="edge5" class="edge">
<title>github.com/gin&#45;gonic/\ngin&#45;&gt;github.com/json&#45;iterator/\ngo</title>
<path fill="none" stroke="black" d="M881.09,-720.07C858.48,-656.04 805.78,-506.84 780.49,-435.22"/>
<polygon fill="black" stroke="black" points="783.74,-433.91 777.11,-425.65 777.14,-436.24 783.74,-433.91"/>
</g>
<!-- github.com/mattn/\ngo&#45;isatty -->
<g id="node8" class="node">
<title>github.com/mattn/\ngo&#45;isatty</title>
<text text-anchor="middle" x="1292.13" y="-972.55" font-family="Helvetica,sans-Serif" font-size="24.00">github.com/mattn/</text>
<text text-anchor="middle" x="1292.13" y="-946.55" font-family="Helvetica,sans-Serif" font-size="24.00">go&#45;isatty</text>
</g>
<!-- github.com/gin&#45;gonic/\ngin&#45;&gt;github.com/mattn/\ngo&#45;isatty -->
<g id="edge6" class="edge">
<title>github.com/gin&#45;gonic/\ngin&#45;&gt;github.com/mattn/\ngo&#45;isatty</title>
<path fill="none" stroke="black" d="M947.86,-780.51C1021.17,-819.95 1149.33,-888.91 1226.89,-930.65"/>
<polygon fill="black" stroke="black" points="1225.63,-933.94 1236.09,-935.6 1228.95,-927.78 1225.63,-933.94"/>
</g>
<!-- github.com/ugorji/\ngo/codec -->
<g id="node9" class="node">
<title>github.com/ugorji/\ngo/codec</title>
<text text-anchor="middle" x="413.23" y="-590.51" font-family="Helvetica,sans-Serif" font-size="24.00">github.com/ugorji/</text>
<text text-anchor="middle" x="413.23" y="-564.51" font-family="Helvetica,sans-Serif" font-size="24.00">go/codec</text>
</g>
<!-- github.com/gin&#45;gonic/\ngin&#45;&gt;github.com/ugorji/\ngo/codec -->
<g id="edge8" class="edge">
<title>github.com/gin&#45;gonic/\ngin&#45;&gt;github.com/ugorji/\ngo/codec</title>
<path fill="none" stroke="black" d="M805.39,-720.25C721.97,-691.2 595.87,-647.3 509.32,-617.16"/>
<polygon fill="black" stroke="black" points="510.35,-613.82 499.76,-613.83 508.05,-620.43 510.35,-613.82"/>
</g>
<!-- github.com/gin&#45;gonic/\ngin&#45;&gt;gopkg.in/yaml.v2 -->
<g id="edge9" class="edge">
<title>github.com/gin&#45;gonic/\ngin&#45;&gt;gopkg.in/yaml.v2</title>
<path fill="none" stroke="black" d="M903.77,-780.44C932.41,-852.32 1004.45,-1033.09 1032.06,-1102.37"/>
<polygon fill="black" stroke="black" points="1028.84,-1103.76 1035.8,-1111.76 1035.35,-1101.17 1028.84,-1103.76"/>
</g>
<!-- github.com/go&#45;playground/\nlocales -->
<g id="node11" class="node">
<title>github.com/go&#45;playground/\nlocales</title>
<text text-anchor="middle" x="1887.52" y="-497.34" font-family="Helvetica,sans-Serif" font-size="24.00">github.com/go&#45;playground/</text>
<text text-anchor="middle" x="1887.52" y="-471.34" font-family="Helvetica,sans-Serif" font-size="24.00">locales</text>
</g>
<!-- github.com/go&#45;playground/\nvalidator/v10&#45;&gt;github.com/go&#45;playground/\nlocales -->
<g id="edge13" class="edge">
<title>github.com/go&#45;playground/\nvalidator/v10&#45;&gt;github.com/go&#45;playground/\nlocales</title>
<path fill="none" stroke="black" d="M1623.11,-540.3C1656.43,-534.03 1691.82,-527.37 1725.5,-521.03"/>
<polygon fill="black" stroke="black" points="1726.24,-524.45 1735.43,-519.16 1724.95,-517.57 1726.24,-524.45"/>
</g>
<!-- github.com/go&#45;playground/\nuniversal&#45;translator -->
<g id="node13" class="node">
<title>github.com/go&#45;playground/\nuniversal&#45;translator</title>
<text text-anchor="middle" x="1720.55" y="-355.62" font-family="Helvetica,sans-Serif" font-size="24.00">github.com/go&#45;playground/</text>
<text text-anchor="middle" x="1720.55" y="-329.62" font-family="Helvetica,sans-Serif" font-size="24.00">universal&#45;translator</text>
</g>
<!-- github.com/go&#45;playground/\nvalidator/v10&#45;&gt;github.com/go&#45;playground/\nuniversal&#45;translator -->
<g id="edge14" class="edge">
<title>github.com/go&#45;playground/\nvalidator/v10&#45;&gt;github.com/go&#45;playground/\nuniversal&#45;translator</title>
<path fill="none" stroke="black" d="M1505.14,-538.79C1550.38,-498.89 1630.1,-428.59 1678.83,-385.6"/>
<polygon fill="black" stroke="black" points="1681.2,-388.19 1686.38,-378.95 1676.57,-382.94 1681.2,-388.19"/>
</g>
<!-- github.com/go&#45;playground/\nassert/v2 -->
<g id="node14" class="node">
<title>github.com/go&#45;playground/\nassert/v2</title>
<text text-anchor="middle" x="1477.66" y="-232.4" font-family="Helvetica,sans-Serif" font-size="24.00">github.com/go&#45;playground/</text>
<text text-anchor="middle" x="1477.66" y="-206.4" font-family="Helvetica,sans-Serif" font-size="24.00">assert/v2</text>
</g>
<!-- github.com/go&#45;playground/\nvalidator/v10&#45;&gt;github.com/go&#45;playground/\nassert/v2 -->
<g id="edge12" class="edge">
<title>github.com/go&#45;playground/\nvalidator/v10&#45;&gt;github.com/go&#45;playground/\nassert/v2</title>
<path fill="none" stroke="black" d="M1471.54,-538.76C1472.75,-476.98 1475.5,-335.98 1476.87,-266.23"/>
<polygon fill="black" stroke="black" points="1480.37,-266.14 1477.06,-256.07 1473.37,-266 1480.37,-266.14"/>
</g>
<!-- github.com/leodido/\ngo&#45;urn -->
<g id="node15" class="node">
<title>github.com/leodido/\ngo&#45;urn</title>
<text text-anchor="middle" x="1212.06" y="-714.19" font-family="Helvetica,sans-Serif" font-size="24.00">github.com/leodido/</text>
<text text-anchor="middle" x="1212.06" y="-688.19" font-family="Helvetica,sans-Serif" font-size="24.00">go&#45;urn</text>
</g>
<!-- github.com/go&#45;playground/\nvalidator/v10&#45;&gt;github.com/leodido/\ngo&#45;urn -->
<g id="edge15" class="edge">
<title>github.com/go&#45;playground/\nvalidator/v10&#45;&gt;github.com/leodido/\ngo&#45;urn</title>
<path fill="none" stroke="black" d="M1414.78,-598.98C1374.37,-620.58 1319.77,-649.79 1277.41,-672.44"/>
<polygon fill="black" stroke="black" points="1275.74,-669.37 1268.57,-677.17 1279.04,-675.54 1275.74,-669.37"/>
</g>
<!-- golang.org/x/crypto -->
<g id="node16" class="node">
<title>golang.org/x/crypto</title>
<text text-anchor="middle" x="1784.7" y="-817.71" font-family="Helvetica,sans-Serif" font-size="24.00">golang.org/x/crypto</text>
</g>
<!-- github.com/go&#45;playground/\nvalidator/v10&#45;&gt;golang.org/x/crypto -->
<g id="edge16" class="edge">
<title>github.com/go&#45;playground/\nvalidator/v10&#45;&gt;golang.org/x/crypto</title>
<path fill="none" stroke="black" d="M1508.18,-599.18C1570.99,-650.23 1696.82,-752.48 1754.52,-799.38"/>
<polygon fill="black" stroke="black" points="1752.56,-802.29 1762.53,-805.88 1756.98,-796.86 1752.56,-802.29"/>
</g>
<!-- github.com/json&#45;iterator/\ngo&#45;&gt;github.com/stretchr/\ntestify -->
<g id="edge21" class="edge">
<title>github.com/json&#45;iterator/\ngo&#45;&gt;github.com/stretchr/\ntestify</title>
<path fill="none" stroke="black" d="M773.41,-425.6C793.47,-512.39 851.39,-763.03 874.08,-861.21"/>
<polygon fill="black" stroke="black" points="870.69,-862.09 876.35,-871.05 877.51,-860.52 870.69,-862.09"/>
</g>
<!-- github.com/json&#45;iterator/\ngo&#45;&gt;github.com/davecgh/\ngo&#45;spew -->
<g id="edge17" class="edge">
<title>github.com/json&#45;iterator/\ngo&#45;&gt;github.com/davecgh/\ngo&#45;spew</title>
<path fill="none" stroke="black" d="M799.44,-425.63C824.85,-448.87 860.1,-481.1 887.19,-505.87"/>
<polygon fill="black" stroke="black" points="884.85,-508.48 894.6,-512.65 889.58,-503.32 884.85,-508.48"/>
</g>
<!-- github.com/google/\ngofuzz -->
<g id="node18" class="node">
<title>github.com/google/\ngofuzz</title>
<text text-anchor="middle" x="658.49" y="-36.8" font-family="Helvetica,sans-Serif" font-size="24.00">github.com/google/</text>
<text text-anchor="middle" x="658.49" y="-10.8" font-family="Helvetica,sans-Serif" font-size="24.00">gofuzz</text>
</g>
<!-- github.com/json&#45;iterator/\ngo&#45;&gt;github.com/google/\ngofuzz -->
<g id="edge18" class="edge">
<title>github.com/json&#45;iterator/\ngo&#45;&gt;github.com/google/\ngofuzz</title>
<path fill="none" stroke="black" d="M757.53,-365.25C738.13,-299.59 692.13,-143.88 670.34,-70.1"/>
<polygon fill="black" stroke="black" points="673.62,-68.85 667.43,-60.25 666.91,-70.84 673.62,-68.85"/>
</g>
<!-- github.com/modern&#45;go/\nconcurrent -->
<g id="node19" class="node">
<title>github.com/modern&#45;go/\nconcurrent</title>
<text text-anchor="middle" x="910.02" y="-84.18" font-family="Helvetica,sans-Serif" font-size="24.00">github.com/modern&#45;go/</text>
<text text-anchor="middle" x="910.02" y="-58.18" font-family="Helvetica,sans-Serif" font-size="24.00">concurrent</text>
</g>
<!-- github.com/json&#45;iterator/\ngo&#45;&gt;github.com/modern&#45;go/\nconcurrent -->
<g id="edge19" class="edge">
<title>github.com/json&#45;iterator/\ngo&#45;&gt;github.com/modern&#45;go/\nconcurrent</title>
<path fill="none" stroke="black" d="M780.09,-365.25C806.19,-307.43 863.18,-181.16 892.23,-116.8"/>
<polygon fill="black" stroke="black" points="895.55,-117.95 896.47,-107.39 889.17,-115.07 895.55,-117.95"/>
</g>
<!-- github.com/modern&#45;go/\nreflect2 -->
<g id="node20" class="node">
<title>github.com/modern&#45;go/\nreflect2</title>
<text text-anchor="middle" x="467.44" y="-199.45" font-family="Helvetica,sans-Serif" font-size="24.00">github.com/modern&#45;go/</text>
<text text-anchor="middle" x="467.44" y="-173.45" font-family="Helvetica,sans-Serif" font-size="24.00">reflect2</text>
</g>
<!-- github.com/json&#45;iterator/\ngo&#45;&gt;github.com/modern&#45;go/\nreflect2 -->
<g id="edge20" class="edge">
<title>github.com/json&#45;iterator/\ngo&#45;&gt;github.com/modern&#45;go/\nreflect2</title>
<path fill="none" stroke="black" d="M722.01,-365.32C668.31,-328.9 578.06,-267.68 520.69,-228.77"/>
<polygon fill="black" stroke="black" points="522.37,-225.68 512.13,-222.96 518.44,-231.47 522.37,-225.68"/>
</g>
<!-- golang.org/x/sys -->
<g id="node21" class="node">
<title>golang.org/x/sys</title>
<text text-anchor="middle" x="1617.43" y="-1050.92" font-family="Helvetica,sans-Serif" font-size="24.00">golang.org/x/sys</text>
</g>
<!-- github.com/mattn/\ngo&#45;isatty&#45;&gt;golang.org/x/sys -->
<g id="edge23" class="edge">
<title>github.com/mattn/\ngo&#45;isatty&#45;&gt;golang.org/x/sys</title>
<path fill="none" stroke="black" d="M1396.84,-995.16C1444.58,-1008.57 1499.96,-1024.13 1543.3,-1036.3"/>
<polygon fill="black" stroke="black" points="1542.62,-1039.74 1553.19,-1039.08 1544.51,-1033 1542.62,-1039.74"/>
</g>
<!-- github.com/ugorji/\ngo -->
<g id="node25" class="node">
<title>github.com/ugorji/\ngo</title>
<text text-anchor="middle" x="104" y="-479.86" font-family="Helvetica,sans-Serif" font-size="24.00">github.com/ugorji/</text>
<text text-anchor="middle" x="104" y="-453.86" font-family="Helvetica,sans-Serif" font-size="24.00">go</text>
</g>
<!-- github.com/ugorji/\ngo/codec&#45;&gt;github.com/ugorji/\ngo -->
<g id="edge30" class="edge">
<title>github.com/ugorji/\ngo/codec&#45;&gt;github.com/ugorji/\ngo</title>
<path fill="none" stroke="black" d="M346.15,-553.62C308.27,-538.98 259.94,-521.41 216.43,-506.39"/>
<polygon fill="black" stroke="black" points="217.53,-503.06 206.94,-503.12 215.25,-509.68 217.53,-503.06"/>
</g>
<!-- gopkg.in/check.v1 -->
<g id="node28" class="node">
<title>gopkg.in/check.v1</title>
<text text-anchor="middle" x="1183.63" y="-1457.56" font-family="Helvetica,sans-Serif" font-size="24.00">gopkg.in/check.v1</text>
</g>
<!-- gopkg.in/yaml.v2&#45;&gt;gopkg.in/check.v1 -->
<g id="edge36" class="edge">
<title>gopkg.in/yaml.v2&#45;&gt;gopkg.in/check.v1</title>
<path fill="none" stroke="black" d="M1050.82,-1148.4C1074.19,-1203.91 1144.06,-1369.8 1171.94,-1436.02"/>
<polygon fill="black" stroke="black" points="1168.79,-1437.54 1175.89,-1445.4 1175.24,-1434.83 1168.79,-1437.54"/>
</g>
<!-- golang.org/x/text -->
<g id="node12" class="node">
<title>golang.org/x/text</title>
<text text-anchor="middle" x="2227.43" y="-564.34" font-family="Helvetica,sans-Serif" font-size="24.00">golang.org/x/text</text>
</g>
<!-- github.com/go&#45;playground/\nlocales&#45;&gt;golang.org/x/text -->
<g id="edge10" class="edge">
<title>github.com/go&#45;playground/\nlocales&#45;&gt;golang.org/x/text</title>
<path fill="none" stroke="black" d="M2015.05,-520.55C2056.9,-530.4 2102.42,-541.11 2140.54,-550.09"/>
<polygon fill="black" stroke="black" points="2140.03,-553.56 2150.57,-552.45 2141.64,-546.75 2140.03,-553.56"/>
</g>
<!-- golang.org/x/tools -->
<g id="node27" class="node">
<title>golang.org/x/tools</title>
<text text-anchor="middle" x="2499.96" y="-549.21" font-family="Helvetica,sans-Serif" font-size="24.00">golang.org/x/tools</text>
</g>
<!-- golang.org/x/text&#45;&gt;golang.org/x/tools -->
<g id="edge35" class="edge">
<title>golang.org/x/text&#45;&gt;golang.org/x/tools</title>
<path fill="none" stroke="black" d="M2325.43,-565.1C2345.02,-564.01 2365.74,-562.86 2385.82,-561.75"/>
<polygon fill="black" stroke="black" points="2386.13,-565.24 2395.92,-561.19 2385.75,-558.25 2386.13,-565.24"/>
</g>
<!-- github.com/go&#45;playground/\nuniversal&#45;translator&#45;&gt;github.com/go&#45;playground/\nlocales -->
<g id="edge11" class="edge">
<title>github.com/go&#45;playground/\nuniversal&#45;translator&#45;&gt;github.com/go&#45;playground/\nlocales</title>
<path fill="none" stroke="black" d="M1755.96,-378.87C1781.75,-400.76 1816.82,-430.53 1844.27,-453.83"/>
<polygon fill="black" stroke="black" points="1842.27,-456.72 1852.16,-460.53 1846.8,-451.39 1842.27,-456.72"/>
</g>
<!-- github.com/leodido/\ngo&#45;urn&#45;&gt;github.com/stretchr/\ntestify -->
<g id="edge22" class="edge">
<title>github.com/leodido/\ngo&#45;urn&#45;&gt;github.com/stretchr/\ntestify</title>
<path fill="none" stroke="black" d="M1161.06,-737.48C1102.19,-772.22 1005.5,-829.27 943.14,-866.06"/>
<polygon fill="black" stroke="black" points="941.04,-863.24 934.2,-871.34 944.59,-869.27 941.04,-863.24"/>
</g>
<!-- golang.org/x/crypto&#45;&gt;golang.org/x/sys -->
<g id="edge32" class="edge">
<title>golang.org/x/crypto&#45;&gt;golang.org/x/sys</title>
<path fill="none" stroke="black" d="M1771.58,-842.21C1742.14,-883.25 1670.75,-982.78 1636.45,-1030.6"/>
<polygon fill="black" stroke="black" points="1633.48,-1028.74 1630.49,-1038.91 1639.17,-1032.82 1633.48,-1028.74"/>
</g>
<!-- golang.org/x/net -->
<g id="node26" class="node">
<title>golang.org/x/net</title>
<text text-anchor="middle" x="2119" y="-819.31" font-family="Helvetica,sans-Serif" font-size="24.00">golang.org/x/net</text>
</g>
<!-- golang.org/x/crypto&#45;&gt;golang.org/x/net -->
<g id="edge31" class="edge">
<title>golang.org/x/crypto&#45;&gt;golang.org/x/net</title>
<path fill="none" stroke="black" d="M1896.46,-830.85C1934.02,-831.51 1975.78,-831.69 2012.9,-831.34"/>
<polygon fill="black" stroke="black" points="2013.27,-834.83 2023.24,-831.22 2013.2,-827.83 2013.27,-834.83"/>
</g>
<!-- github.com/mlabouardy/\nhello&#45;world -->
<g id="node22" class="node">
<title>github.com/mlabouardy/\nhello&#45;world</title>
<text text-anchor="middle" x="603.14" y="-707.69" font-family="Helvetica,sans-Serif" font-size="24.00">github.com/mlabouardy/</text>
<text text-anchor="middle" x="603.14" y="-681.69" font-family="Helvetica,sans-Serif" font-size="24.00">hello&#45;world</text>
</g>
<!-- github.com/mlabouardy/\nhello&#45;world&#45;&gt;github.com/gin&#45;gonic/\ngin -->
<g id="edge24" class="edge">
<title>github.com/mlabouardy/\nhello&#45;world&#45;&gt;github.com/gin&#45;gonic/\ngin</title>
<path fill="none" stroke="black" d="M740.7,-724.45C746.41,-725.43 752.14,-726.41 757.85,-727.39"/>
<polygon fill="black" stroke="black" points="757.65,-730.91 768.1,-729.15 758.83,-724.01 757.65,-730.91"/>
</g>
<!-- github.com/ugorji/\ngo&#45;&gt;github.com/ugorji/\ngo/codec -->
<g id="edge29" class="edge">
<title>github.com/ugorji/\ngo&#45;&gt;github.com/ugorji/\ngo/codec</title>
<path fill="none" stroke="black" d="M171.08,-503.15C208.96,-517.78 257.3,-535.35 300.8,-550.38"/>
<polygon fill="black" stroke="black" points="299.7,-553.7 310.3,-553.64 301.98,-547.08 299.7,-553.7"/>
</g>
<!-- golang.org/x/net&#45;&gt;golang.org/x/text -->
<g id="edge34" class="edge">
<title>golang.org/x/net&#45;&gt;golang.org/x/text</title>
<path fill="none" stroke="black" d="M2126.8,-807.18C2145.6,-762.98 2193.48,-650.37 2215.73,-598.04"/>
<polygon fill="black" stroke="black" points="2219.01,-599.28 2219.7,-588.71 2212.56,-596.54 2219.01,-599.28"/>
</g>
<!-- golang.org/x/net&#45;&gt;golang.org/x/crypto -->
<g id="edge33" class="edge">
<title>golang.org/x/net&#45;&gt;golang.org/x/crypto</title>
<path fill="none" stroke="black" d="M2023.24,-818.88C1986.93,-818.08 1945.09,-817.76 1906.7,-817.97"/>
<polygon fill="black" stroke="black" points="1906.47,-814.47 1896.49,-818.03 1906.51,-821.47 1906.47,-814.47"/>
</g>
</g>
</svg>
